<mxfile host="app.diagrams.net" modified="2024-01-03T10:28:33.358Z" agent="Mozilla/5.0 (Macintosh; Intel Mac OS X 10_15_7) AppleWebKit/605.1.15 (KHTML, like Gecko) Version/16.3 Safari/605.1.15" etag="ZXjktWJ3N7_uvGaBbzm3" version="22.1.16" type="github">
  <diagram name="Page-1" id="tBpMIXiTde8eMjGdHYfz">
    <mxGraphModel dx="1853" dy="692" grid="1" gridSize="10" guides="1" tooltips="1" connect="1" arrows="1" fold="1" page="1" pageScale="1" pageWidth="827" pageHeight="1169" background="#ffffff" math="0" shadow="0">
      <root>
        <mxCell id="0" />
        <mxCell id="1" parent="0" />
        <mxCell id="C93Rep0_s2yTKc6eNFUG-2" value="" style="swimlane;startSize=0;" vertex="1" parent="1">
          <mxGeometry x="50" y="120" width="250" height="370" as="geometry" />
        </mxCell>
        <mxCell id="C93Rep0_s2yTKc6eNFUG-3" value="Kafka broker" style="text;html=1;align=center;verticalAlign=middle;resizable=0;points=[];autosize=1;strokeColor=none;fillColor=none;" vertex="1" parent="C93Rep0_s2yTKc6eNFUG-2">
          <mxGeometry x="10" y="10" width="90" height="30" as="geometry" />
        </mxCell>
        <mxCell id="C93Rep0_s2yTKc6eNFUG-4" value="" style="rounded=0;whiteSpace=wrap;html=1;" vertex="1" parent="C93Rep0_s2yTKc6eNFUG-2">
          <mxGeometry y="110" width="250" height="150" as="geometry" />
        </mxCell>
        <mxCell id="C93Rep0_s2yTKc6eNFUG-6" value="0" style="whiteSpace=wrap;html=1;aspect=fixed;" vertex="1" parent="C93Rep0_s2yTKc6eNFUG-2">
          <mxGeometry x="30" y="120" width="30" height="30" as="geometry" />
        </mxCell>
        <mxCell id="C93Rep0_s2yTKc6eNFUG-7" value="1" style="whiteSpace=wrap;html=1;aspect=fixed;" vertex="1" parent="C93Rep0_s2yTKc6eNFUG-2">
          <mxGeometry x="70" y="120" width="30" height="30" as="geometry" />
        </mxCell>
        <mxCell id="C93Rep0_s2yTKc6eNFUG-8" value="3" style="whiteSpace=wrap;html=1;aspect=fixed;" vertex="1" parent="C93Rep0_s2yTKc6eNFUG-2">
          <mxGeometry x="110" y="120" width="30" height="30" as="geometry" />
        </mxCell>
        <mxCell id="C93Rep0_s2yTKc6eNFUG-15" value="" style="whiteSpace=wrap;html=1;aspect=fixed;" vertex="1" parent="C93Rep0_s2yTKc6eNFUG-2">
          <mxGeometry x="150" y="120" width="30" height="30" as="geometry" />
        </mxCell>
        <mxCell id="C93Rep0_s2yTKc6eNFUG-18" value="0" style="text;html=1;strokeColor=none;fillColor=none;align=center;verticalAlign=middle;whiteSpace=wrap;rounded=0;" vertex="1" parent="C93Rep0_s2yTKc6eNFUG-2">
          <mxGeometry x="10" y="120" width="20" height="30" as="geometry" />
        </mxCell>
        <mxCell id="C93Rep0_s2yTKc6eNFUG-21" value="2" style="whiteSpace=wrap;html=1;aspect=fixed;" vertex="1" parent="C93Rep0_s2yTKc6eNFUG-2">
          <mxGeometry x="30" y="160" width="30" height="30" as="geometry" />
        </mxCell>
        <mxCell id="C93Rep0_s2yTKc6eNFUG-22" value="" style="whiteSpace=wrap;html=1;aspect=fixed;" vertex="1" parent="C93Rep0_s2yTKc6eNFUG-2">
          <mxGeometry x="70" y="160" width="30" height="30" as="geometry" />
        </mxCell>
        <mxCell id="C93Rep0_s2yTKc6eNFUG-23" value="" style="whiteSpace=wrap;html=1;aspect=fixed;" vertex="1" parent="C93Rep0_s2yTKc6eNFUG-2">
          <mxGeometry x="110" y="160" width="30" height="30" as="geometry" />
        </mxCell>
        <mxCell id="C93Rep0_s2yTKc6eNFUG-24" value="" style="whiteSpace=wrap;html=1;aspect=fixed;" vertex="1" parent="C93Rep0_s2yTKc6eNFUG-2">
          <mxGeometry x="150" y="160" width="30" height="30" as="geometry" />
        </mxCell>
        <mxCell id="C93Rep0_s2yTKc6eNFUG-25" value="" style="whiteSpace=wrap;html=1;aspect=fixed;" vertex="1" parent="C93Rep0_s2yTKc6eNFUG-2">
          <mxGeometry x="30" y="200" width="30" height="30" as="geometry" />
        </mxCell>
        <mxCell id="C93Rep0_s2yTKc6eNFUG-26" value="" style="whiteSpace=wrap;html=1;aspect=fixed;" vertex="1" parent="C93Rep0_s2yTKc6eNFUG-2">
          <mxGeometry x="70" y="200" width="30" height="30" as="geometry" />
        </mxCell>
        <mxCell id="C93Rep0_s2yTKc6eNFUG-27" value="" style="whiteSpace=wrap;html=1;aspect=fixed;" vertex="1" parent="C93Rep0_s2yTKc6eNFUG-2">
          <mxGeometry x="110" y="200" width="30" height="30" as="geometry" />
        </mxCell>
        <mxCell id="C93Rep0_s2yTKc6eNFUG-28" value="" style="whiteSpace=wrap;html=1;aspect=fixed;" vertex="1" parent="C93Rep0_s2yTKc6eNFUG-2">
          <mxGeometry x="150" y="200" width="30" height="30" as="geometry" />
        </mxCell>
        <mxCell id="C93Rep0_s2yTKc6eNFUG-29" value="1" style="text;html=1;strokeColor=none;fillColor=none;align=center;verticalAlign=middle;whiteSpace=wrap;rounded=0;" vertex="1" parent="C93Rep0_s2yTKc6eNFUG-2">
          <mxGeometry x="10" y="160" width="20" height="30" as="geometry" />
        </mxCell>
        <mxCell id="C93Rep0_s2yTKc6eNFUG-30" value="2" style="text;html=1;strokeColor=none;fillColor=none;align=center;verticalAlign=middle;whiteSpace=wrap;rounded=0;" vertex="1" parent="C93Rep0_s2yTKc6eNFUG-2">
          <mxGeometry x="10" y="200" width="20" height="30" as="geometry" />
        </mxCell>
        <mxCell id="C93Rep0_s2yTKc6eNFUG-5" value="Topic A" style="text;html=1;align=center;verticalAlign=middle;resizable=0;points=[];autosize=1;strokeColor=none;fillColor=none;" vertex="1" parent="1">
          <mxGeometry x="60" y="198" width="60" height="30" as="geometry" />
        </mxCell>
        <mxCell id="C93Rep0_s2yTKc6eNFUG-31" value="" style="endArrow=classic;html=1;rounded=0;entryX=0;entryY=0.467;entryDx=0;entryDy=0;entryPerimeter=0;" edge="1" parent="1" target="C93Rep0_s2yTKc6eNFUG-4">
          <mxGeometry width="50" height="50" relative="1" as="geometry">
            <mxPoint x="-180" y="300" as="sourcePoint" />
            <mxPoint x="-20" y="275" as="targetPoint" />
          </mxGeometry>
        </mxCell>
        <mxCell id="C93Rep0_s2yTKc6eNFUG-32" value="0" style="whiteSpace=wrap;html=1;aspect=fixed;" vertex="1" parent="1">
          <mxGeometry x="-160" y="260" width="30" height="30" as="geometry" />
        </mxCell>
        <mxCell id="C93Rep0_s2yTKc6eNFUG-33" value="1" style="whiteSpace=wrap;html=1;aspect=fixed;" vertex="1" parent="1">
          <mxGeometry x="-120" y="260" width="30" height="30" as="geometry" />
        </mxCell>
        <mxCell id="C93Rep0_s2yTKc6eNFUG-34" value="2" style="whiteSpace=wrap;html=1;aspect=fixed;" vertex="1" parent="1">
          <mxGeometry x="-80" y="260" width="30" height="30" as="geometry" />
        </mxCell>
        <mxCell id="C93Rep0_s2yTKc6eNFUG-35" value="3" style="whiteSpace=wrap;html=1;aspect=fixed;" vertex="1" parent="1">
          <mxGeometry x="-40" y="260" width="30" height="30" as="geometry" />
        </mxCell>
      </root>
    </mxGraphModel>
  </diagram>
</mxfile>
